<svg xmlns="http://www.w3.org/2000/svg" height="512" viewBox="0 0 24 24" width="512" xmlns:v="https://vecta.io/nano"><path fill="#333" d="M16.354 23.17c.02-.006.04-.014.06-.02C28.628 18.296 25.25 0 12 0A12.02 12.02 0 0 0 0 12c0 8.327 8.434 14.27 16.354 11.17zM5.28 20.06c.852-1.432 3.61-5.472 8.315-6.866.984 2.51 1.674 5.436 1.742 8.755-3.566 1.2-7.327.392-10.057-1.89zm11.532 1.263c-.13-3.19-.782-6.017-1.7-8.467 2.082-.325 4.492-.108 7.225.987-.58 3.26-2.666 6.002-5.515 7.48zm5.672-9.03c-3-1.13-5.663-1.272-7.96-.834-.355-.8-.728-1.57-1.123-2.277 3.523-1.407 5.605-3.122 6.537-4.03 1.645 1.904 2.622 4.37 2.545 7.14zm-3.6-8.21c-.848.807-2.845 2.437-6.26 3.77C10.94 5.204 9.15 3.336 8.017 2.3c3.628-1.494 7.812-.856 10.858 1.792zM6.583 3.023c.856.753 2.735 2.56 4.548 5.357-2.5.802-5.612 1.39-9.41 1.474a10.52 10.52 0 0 1 4.861-6.831zm-5.05 8.337c4.25-.07 7.7-.74 10.41-1.648.376.66.733 1.377 1.076 2.123-4.735 1.508-7.694 5.4-8.827 7.16a10.36 10.36 0 0 1-2.658-7.634z"/></svg>