<?xml version="1.0" encoding="UTF-8"?>
<svg enable-background="new 0 0 512 512" version="1.1" viewBox="0 0 512 512" xml:space="preserve" xmlns="http://www.w3.org/2000/svg">
		<path d="m368.94 40.224c-42.274-34.354-97.534-47.576-151.62-36.277-67.584 14.122-122.72 69.499-137.2 137.8-12.211 57.593 2.836 115.41 41.286 158.64 19.069 21.438 29.571 48.256 29.571 75.591v30.006c0 19.559 12.543 36.235 30.005 42.428v18.583c0 24.818 20.191 45.008 45.008 45.008h60.011c24.818 0 45.008-20.191 45.008-45.008v-18.583c17.462-6.193 30.005-22.869 30.005-42.428v-30.005c0-26.985 10.813-54.183 30.448-76.583 28.739-32.787 44.566-74.855 44.566-118.45 1e-3 -54.777-24.453-106.07-67.089-140.72zm-67.935 426.77c0 8.272-6.73 15.003-15.003 15.003h-60.011c-8.273 0-15.003-6.73-15.003-15.003v-16.003h90.016v16.003zm30.006-61.011c0 8.273-6.73 15.003-15.003 15.003h-120.02c-8.273 0-15.003-6.73-15.003-15.003v-15.003h150.03v15.003zm37.888-126.37c-20.861 23.8-33.72 52.229-37.034 81.358h-151.7c-3.217-29.332-15.837-57.482-36.34-80.531-32.043-36.023-44.564-84.305-34.351-132.47 12.054-56.85 57.863-102.93 113.99-114.65 45.196-9.443 91.323 1.561 126.55 30.192 35.594 28.925 56.008 71.727 56.008 117.43-1e-3 36.318-13.185 71.361-37.126 98.674z"/>
		<path d="m45.961 180.94h-30.005c-8.286 0-15.003 6.717-15.003 15.003s6.717 15.003 15.003 15.003h30.005c8.286 0 15.003-6.717 15.003-15.003s-6.717-15.003-15.003-15.003z"/>
		<path d="m52.175 105.92-21.217-21.217c-5.859-5.859-15.358-5.859-21.217 0s-5.859 15.358 0 21.217l21.217 21.217c5.859 5.859 15.358 5.859 21.217 0s5.859-15.358 0-21.217z"/>
		<path d="m52.175 264.74c-5.859-5.859-15.358-5.859-21.218 0l-21.215 21.217c-5.858 5.859-5.858 15.358 0 21.217 5.858 5.858 15.357 5.859 21.217 0l21.217-21.217c5.857-5.859 5.857-15.358-1e-3 -21.217z"/>
		<path d="m496.04 180.94h-30.005c-8.286 0-15.003 6.717-15.003 15.003s6.717 15.003 15.003 15.003h30.005c8.286 0 15.003-6.717 15.003-15.003s-6.718-15.003-15.003-15.003z"/>
		<path d="m502.26 84.708c-5.858-5.859-15.358-5.859-21.217 0l-21.217 21.217c-5.859 5.859-5.859 15.358 0 21.217 5.858 5.859 15.358 5.859 21.217 0l21.217-21.217c5.859-5.859 5.859-15.358 0-21.217z"/>
		<path d="m502.26 285.96-21.217-21.217c-5.86-5.859-15.358-5.859-21.217 0s-5.859 15.358 0 21.217l21.217 21.217c5.86 5.86 15.359 5.859 21.217 0 5.859-5.859 5.859-15.358 0-21.217z"/>
		<path d="m369.45 194.47-8.834-5.1c0.532-5.758 0.534-11.07 0-16.862l8.834-5.1c7.175-4.143 9.634-13.318 5.491-20.494l-30.005-51.971c-4.143-7.175-13.318-9.635-20.494-5.491l-9.143 5.278c-4.552-3.147-9.327-5.914-14.295-8.288v-10.521c0-8.286-6.717-15.003-15.003-15.003h-60.011c-8.286 0-15.003 6.717-15.003 15.003v10.522c-4.968 2.373-9.742 5.141-14.295 8.288l-9.143-5.278c-7.176-4.144-16.353-1.684-20.494 5.491l-30.005 51.972c-4.143 7.175-1.684 16.351 5.491 20.494l8.834 5.1c-0.533 5.782-0.533 11.094 0 16.862l-8.834 5.1c-7.175 4.143-9.634 13.318-5.491 20.494l30.005 51.972c4.143 7.175 13.316 9.634 20.494 5.491l9.143-5.278c4.553 3.147 9.326 5.914 14.295 8.288v10.522c0 8.286 6.717 15.003 15.003 15.003h60.011c8.286 0 15.003-6.717 15.003-15.003v-10.522c4.969-2.373 9.742-5.141 14.295-8.288l9.143 5.278c7.176 4.143 16.351 1.684 20.494-5.491l30.005-51.972c4.142-7.177 1.684-16.353-5.491-20.496zm-39.841-27.181c1.865 10.118 1.867 17.175 0 27.301-1.151 6.245 1.753 12.538 7.252 15.713l4.593 2.651-15.003 25.986-4.825-2.786c-5.502-3.177-12.406-2.543-17.238 1.579-7.001 5.972-14.878 10.539-23.411 13.573-5.981 2.126-9.977 7.787-9.977 14.136v5.512h-30.006v-5.512c0-6.348-3.996-12.009-9.977-14.136-8.535-3.034-16.411-7.6-23.411-13.573-4.832-4.123-11.736-4.756-17.238-1.579l-4.825 2.786-15.003-25.986 4.593-2.651c5.5-3.176 8.405-9.469 7.252-15.713-1.865-10.118-1.867-17.175 0-27.301 1.151-6.245-1.753-12.538-7.252-15.713l-4.593-2.651 15.003-25.986 4.825 2.786c5.502 3.176 12.407 2.543 17.238-1.579 7.001-5.973 14.878-10.539 23.411-13.573 5.981-2.126 9.978-7.787 9.978-14.136v-5.512h30.006v5.512c0 6.348 3.996 12.009 9.978 14.136 8.534 3.034 16.41 7.6 23.411 13.573 4.832 4.123 11.737 4.756 17.238 1.579l4.825-2.786 15.003 25.986-4.593 2.651c-5.5 3.175-8.405 9.468-7.254 15.713z"/>
		<path d="m256 135.93c-24.818 0-45.008 20.191-45.008 45.008s20.191 45.008 45.008 45.008 45.008-20.191 45.008-45.008-20.191-45.008-45.008-45.008zm0 60.011c-8.273 0-15.003-6.73-15.003-15.003 0-8.272 6.73-15.003 15.003-15.003s15.003 6.73 15.003 15.003c0 8.272-6.731 15.003-15.003 15.003z"/>
</svg>
