<?xml version="1.0" encoding="UTF-8"?>
<svg enable-background="new 0 0 512 512" viewBox="0 0 512 512" xmlns="http://www.w3.org/2000/svg">
<path d="m467 209.5h-388v-35c0-8.271 6.729-15 15-15h260c24.813 0 45-20.187 45-45v-83c0-8.284-6.716-15-15-15s-15 6.716-15 15v83c0 8.271-6.729 15-15 15h-260c-24.813 0-45 20.187-45 45v35h-4c-24.813 0-45 20.187-45 45v196c0 24.813 20.187 45 45 45h422c24.813 0 45-20.187 45-45v-196c0-24.813-20.187-45-45-45zm15 241c0 8.271-6.729 15-15 15h-422c-8.271 0-15-6.729-15-15v-196c0-8.271 6.729-15 15-15h422c8.271 0 15 6.729 15 15z"/>
<path d="m80 303.5h24c8.284 0 15-6.716 15-15s-6.716-15-15-15h-24c-8.284 0-15 6.716-15 15s6.716 15 15 15z"/>
<path d="m176 401.5h-16c-8.284 0-15 6.716-15 15s6.716 15 15 15h16c8.284 0 15-6.716 15-15s-6.716-15-15-15z"/>
<path d="m432 401.5h-8c-8.284 0-15 6.716-15 15s6.716 15 15 15h8c8.284 0 15-6.716 15-15s-6.716-15-15-15z"/>
<path d="m313 352.5c0 8.284 6.716 15 15 15h8c8.284 0 15-6.716 15-15s-6.716-15-15-15h-8c-8.284 0-15 6.716-15 15z"/>
<path d="m184 337.5h-8c-8.284 0-15 6.716-15 15s6.716 15 15 15h8c8.284 0 15-6.716 15-15s-6.716-15-15-15z"/>
<path d="m239 288.5c0-8.284-6.716-15-15-15h-24c-8.284 0-15 6.716-15 15s6.716 15 15 15h24c8.284 0 15-6.716 15-15z"/>
<path d="m233 352.5c0 8.284 6.716 15 15 15h16c8.284 0 15-6.716 15-15s-6.716-15-15-15h-16c-8.284 0-15 6.716-15 15z"/>
<path d="m288 303.5h24c8.284 0 15-6.716 15-15s-6.716-15-15-15h-24c-8.284 0-15 6.716-15 15s6.716 15 15 15z"/>
<path d="m432 273.5h-24c-8.284 0-15 6.716-15 15s6.716 15 15 15h24c8.284 0 15-6.716 15-15s-6.716-15-15-15z"/>
<path d="m96 401.5h-16c-8.284 0-15 6.716-15 15s6.716 15 15 15h16c8.284 0 15-6.716 15-15s-6.716-15-15-15z"/>
<path d="m432 337.5h-32c-8.284 0-15 6.716-15 15s6.716 15 15 15h32c8.284 0 15-6.716 15-15s-6.716-15-15-15z"/>
<path d="m112 337.5h-32c-8.284 0-15 6.716-15 15s6.716 15 15 15h32c8.284 0 15-6.716 15-15s-6.716-15-15-15z"/>
<path d="m360 401.5h-120c-8.284 0-15 6.716-15 15s6.716 15 15 15h120c8.284 0 15-6.716 15-15s-6.716-15-15-15z"/>
</svg>
